P3
# Created by GIMP version 2.99.16 PNM plug-in
19 10
255
255
0
255
255
0
255
255
0
255
255
0
255
255
0
255
255
0
255
255
0
255
255
0
255
100
100
100
0
0
0
100
100
100
255
0
255
255
0
255
255
0
255
255
0
255
255
0
255
255
0
255
255
0
255
255
0
255
255
0
255
255
0
255
255
0
255
255
0
255
255
0
255
255
0
255
255
0
255
255
0
255
124
124
124
140
140
140
124
124
124
255
0
255
255
0
255
255
0
255
255
0
255
255
0
255
255
0
255
255
0
255
255
0
255
255
0
255
255
0
255
255
0
255
255
0
255
255
0
255
255
0
255
255
0
255
255
0
255
4
76
0
4
100
0
4
76
0
255
0
255
255
0
255
255
0
255
255
0
255
255
0
255
255
0
255
255
0
255
255
0
255
255
0
255
255
0
255
255
0
255
255
0
255
255
0
255
4
100
0
4
112
0
4
124
0
4
124
0
4
124
0
4
112
0
4
112
0
4
100
0
4
88
0
255
0
255
255
0
255
255
0
255
255
0
255
255
0
255
255
0
255
255
0
255
255
0
255
4
100
0
4
136
0
4
152
0
4
176
0
4
200
0
4
200
0
4
176
0
4
152
0
4
152
0
4
136
0
4
124
0
4
100
0
4
88
0
255
0
255
255
0
255
255
0
255
255
0
255
255
0
255
4
100
0
4
164
0
4
188
0
0
236
0
0
236
0
0
236
0
0
236
0
0
224
0
4
200
0
0
168
0
4
152
0
4
136
0
4
124
0
4
100
0
4
88
0
255
0
255
255
0
255
255
0
255
4
100
0
4
176
0
4
200
0
0
224
0
0
252
0
0
252
0
0
252
0
0
252
0
0
224
0
0
224
0
4
200
0
4
176
0
4
164
0
4
136
0
4
124
0
4
100
0
4
88
0
255
0
255
4
100
0
4
164
0
0
224
0
0
252
0
128
252
124
188
252
184
216
252
216
252
252
184
252
252
252
252
252
84
252
252
156
252
252
184
216
252
216
188
252
184
128
252
124
0
252
0
0
224
0
4
152
0
4
100
0
4
124
0
4
152
0
0
236
0
128
252
124
128
252
124
128
252
124
188
252
184
216
252
216
252
252
184
252
252
184
252
252
184
216
252
216
188
252
184
128
252
124
128
252
124
128
252
124
0
236
0
4
152
0
4
124
0
255
0
255
255
0
255
4
152
0
4
200
0
0
224
0
0
252
0
128
252
124
128
252
124
128
252
124
128
252
124
128
252
124
128
252
124
128
252
124
0
252
0
0
224
0
4
200
0
4
152
0
255
0
255
255
0
255
